<?xml version="1.0" standalone="no"?>
<!DOCTYPE svg PUBLIC "-//W3C//DTD SVG 20010904//EN"
 "http://www.w3.org/TR/2001/REC-SVG-20010904/DTD/svg10.dtd">
<svg version="1.0" xmlns="http://www.w3.org/2000/svg"
 width="532.000000pt" height="342.000000pt" viewBox="0 0 532.000000 342.000000"
 preserveAspectRatio="xMidYMid meet">

<g transform="translate(0.000000,342.000000) scale(0.100000,-0.100000)"
fill="#000000" stroke="none">
<path d="M2629 3303 c-8 -9 -16 -45 -19 -80 l-5 -64 -51 -18 c-98 -33 -156
-98 -162 -183 l-4 -58 -80 0 c-78 0 -82 1 -120 35 -35 32 -93 64 -140 79 -15
4 -18 17 -18 70 0 55 -3 67 -22 80 -15 11 -26 12 -39 5 -14 -7 -19 -24 -21
-81 -3 -72 -3 -72 -34 -79 -44 -8 -95 -42 -138 -89 l-36 -40 0 -110 0 -110
-103 0 c-67 0 -107 -4 -115 -12 -7 -7 -12 -38 -12 -70 0 -62 -4 -66 -34 -43
-11 8 -28 15 -38 15 -15 0 -18 9 -18 64 0 45 -5 69 -16 80 -37 37 -64 10 -64
-63 0 -67 -5 -75 -51 -90 -36 -11 -97 -68 -118 -108 -6 -12 -11 -56 -11 -98 0
-70 -2 -76 -18 -70 -56 23 -77 27 -117 21 -59 -9 -106 -42 -132 -96 l-23 -44
0 -888 0 -888 -52 0 c-76 0 -82 -7 -86 -94 l-4 -76 -202 -2 c-367 -3 -433 -5
-445 -12 -18 -12 -13 -54 8 -66 27 -14 5105 -14 5132 0 29 16 25 58 -7 70 -15
6 -144 10 -307 9 -155 0 -293 0 -307 0 -25 1 -26 2 -22 61 6 88 -11 110 -83
110 l-55 0 0 888 0 888 -23 44 c-26 54 -73 87 -132 96 -40 6 -61 2 -117 -21
-16 -6 -18 1 -18 71 0 60 -5 87 -19 110 -24 40 -81 85 -123 100 -32 10 -33 12
-36 74 -3 65 -14 90 -38 90 -29 0 -44 -31 -44 -95 0 -62 -1 -64 -30 -70 -16
-4 -32 -11 -35 -16 -15 -23 -25 -5 -25 42 0 86 -5 89 -125 89 l-105 0 0 110
c0 109 0 109 -32 146 -38 44 -93 80 -139 92 l-34 8 -3 72 c-2 58 -6 74 -22 82
-13 7 -23 5 -39 -8 -16 -13 -21 -31 -23 -81 -3 -64 -3 -65 -37 -73 -41 -11
-98 -47 -130 -82 -23 -24 -30 -26 -113 -26 l-88 0 0 60 c0 59 -1 62 -48 109
-31 31 -68 55 -103 68 l-54 21 -5 71 c-3 49 -10 75 -20 81 -22 14 -36 12 -51
-7z m82 -233 c19 -5 54 -26 77 -46 l42 -36 0 -199 c0 -109 -4 -199 -8 -199 -5
0 -28 10 -53 22 -34 17 -61 22 -119 22 -69 0 -93 -6 -162 -42 -5 -2 -8 89 -8
201 l0 206 38 31 c57 47 120 60 193 40z m-670 -141 c21 -7 54 -25 73 -41 l36
-29 0 -193 0 -193 -47 23 c-62 32 -170 33 -228 4 -22 -11 -43 -20 -47 -20 -4
0 -8 82 -8 183 0 210 1 215 84 253 57 27 82 29 137 13z m1367 -13 c15 -8 40
-26 55 -41 l27 -28 0 -183 c0 -101 -4 -184 -9 -184 -5 0 -28 9 -52 20 -59 26
-159 26 -218 0 -24 -11 -45 -20 -47 -20 -2 0 -4 85 -4 188 l0 188 29 28 c57
54 150 68 219 32z m-1018 -966 l0 -871 -75 3 -75 3 0 595 c-1 327 -1 718 -1
868 l1 272 75 0 75 0 0 -870z m680 0 l0 -870 -80 0 -80 0 0 870 0 870 80 0 80
0 0 -870z m-1330 -120 l0 -751 -72 3 -73 3 -3 735 c-1 404 0 741 3 748 3 8 28
12 75 12 l70 0 0 -750z m1974 0 l0 -745 -72 -3 -72 -3 0 751 0 751 73 -3 72
-3 -1 -745z m-973 704 c15 -7 41 -25 58 -40 l31 -26 0 -175 c0 -96 -3 -173 -7
-171 -84 43 -113 52 -174 52 -51 0 -78 -6 -117 -25 l-52 -26 0 169 c0 93 4
178 10 188 12 23 73 61 114 71 38 9 102 1 137 -17z m-1316 -68 c19 -8 46 -27
60 -42 25 -27 25 -28 25 -220 0 -107 -1 -194 -3 -194 -1 0 -20 9 -42 20 -50
26 -126 26 -182 0 l-43 -19 0 192 c0 213 1 215 70 256 41 25 68 26 115 7z
m2581 -12 c64 -44 63 -41 64 -251 0 -106 -1 -193 -3 -193 -1 0 -20 9 -42 20
-24 12 -59 20 -90 20 -31 0 -66 -8 -90 -20 -22 -11 -41 -20 -42 -20 -6 0 -3
379 4 395 10 27 93 75 129 75 17 0 48 -12 70 -26z m-1949 -25 c15 -5 43 -24
61 -42 l32 -31 0 -162 0 -161 -47 23 c-61 31 -167 33 -232 4 -24 -11 -45 -20
-47 -20 -2 0 -4 69 -4 154 0 142 2 155 22 181 43 54 146 80 215 54z m1350 -10
c78 -38 83 -50 83 -225 0 -85 -4 -154 -8 -154 -5 0 -24 8 -43 18 -25 12 -58
17 -119 17 -61 0 -94 -5 -119 -17 -19 -10 -36 -18 -38 -18 -1 0 -3 72 -3 160
0 158 0 161 25 186 56 56 147 69 222 33z m-2287 -239 c33 -33 40 -64 40 -170
l0 -99 -37 16 c-37 15 -97 14 -151 -3 l-24 -7 4 117 c3 115 4 118 31 142 37
32 108 33 137 4z m3211 -9 c29 -29 29 -31 29 -145 l0 -115 -37 16 c-36 15 -97
14 -150 -2 -23 -7 -23 -6 -23 88 0 144 24 187 106 187 37 0 51 -5 75 -29z
m-1598 -95 c18 -7 47 -27 65 -44 l32 -30 0 -196 c0 -108 -2 -196 -4 -196 -2 0
-29 12 -60 26 -49 22 -68 26 -129 22 -49 -2 -85 -10 -114 -25 l-43 -23 0 198
0 198 33 31 c17 18 43 36 57 42 37 14 126 13 163 -3z m-670 -90 c18 -7 44 -25
60 -39 l27 -26 0 -186 c0 -103 -3 -185 -7 -183 -97 50 -198 57 -270 20 -23
-12 -45 -22 -48 -22 -3 0 -5 80 -5 179 0 166 1 180 21 205 46 59 149 83 222
52z m1344 -7 c80 -39 83 -47 83 -251 0 -168 -1 -180 -17 -173 -116 51 -181 54
-268 16 l-45 -20 0 179 c0 98 3 186 7 195 3 10 26 30 51 46 57 36 125 39 189
8z m-1971 -25 c70 -33 74 -46 74 -241 l0 -173 -40 20 c-25 13 -59 20 -95 20
-36 0 -70 -7 -95 -20 l-40 -20 0 172 c0 164 1 174 23 200 46 56 110 72 173 42z
m2560 0 c68 -32 74 -52 74 -238 0 -178 -1 -179 -50 -151 -38 22 -133 19 -180
-5 l-40 -20 0 173 c0 158 2 177 20 199 42 54 115 71 176 42z m-2909 -105 c15
-6 38 -20 51 -31 l22 -21 0 -359 0 -358 -105 0 -105 0 0 364 0 365 28 19 c48
34 67 37 109 21z m3200 3 c12 -4 33 -17 47 -29 l26 -23 0 -360 0 -360 -105 0
-105 0 0 358 0 358 28 26 c39 37 63 43 109 30z m-1559 -288 c20 -8 52 -29 70
-46 l32 -32 0 -203 0 -203 -175 0 -175 0 0 208 0 208 28 27 c57 55 147 72 220
41z m-648 -73 c14 -8 35 -23 48 -34 21 -20 22 -27 22 -199 l0 -178 -165 0
-165 0 0 173 0 173 34 33 c57 55 154 69 226 32z m1316 8 c12 -4 38 -22 58 -39
l36 -32 0 -174 0 -174 -165 0 -165 0 0 179 0 180 37 30 c55 45 128 56 199 30z
m-1962 -13 c18 -7 42 -26 54 -41 21 -26 22 -38 22 -196 l0 -169 -135 0 -135 0
0 169 c0 157 1 170 22 196 40 51 109 67 172 41z m2560 0 c18 -7 42 -26 54 -41
21 -26 22 -38 22 -196 l0 -169 -135 0 -135 0 0 169 c0 157 1 170 22 196 40 51
109 67 172 41z m-2836 -538 l3 -48 -105 0 -106 0 0 50 0 51 103 -3 102 -3 3
-47z m352 2 l0 -50 -135 0 -135 0 0 43 c0 24 3 47 7 50 3 4 64 7 135 7 l128 0
0 -50z m230 0 l0 -51 -72 3 -73 3 -3 33 c-6 57 0 62 78 62 l70 0 0 -50z m410
0 l0 -50 -162 2 -163 3 -3 33 c-6 63 -8 62 168 62 l160 0 0 -50z m240 0 l0
-50 -75 0 -75 0 0 50 0 50 75 0 75 0 0 -50z m438 -2 l3 -48 -175 0 -176 0 0
50 0 50 173 -2 172 -3 3 -47z m242 2 l0 -50 -80 0 -80 0 0 50 0 50 80 0 80 0
0 -50z m415 0 l0 -45 -162 -3 -163 -2 0 50 0 50 163 -2 162 -3 0 -45z m230 0
l0 -45 -72 -3 -73 -3 0 51 0 51 73 -3 72 -3 0 -45z m353 -2 l3 -48 -135 0
-136 0 0 50 0 51 133 -3 132 -3 3 -47z m292 2 l0 -50 -105 0 -105 0 0 43 c0
24 3 47 7 50 3 4 51 7 105 7 l98 0 0 -50z m-3200 -355 l0 -225 -105 0 -105 0
0 225 0 225 105 0 105 0 0 -225z m350 165 c0 -33 -2 -60 -4 -60 -2 0 -23 9
-47 20 -56 25 -112 25 -168 0 -24 -11 -45 -20 -47 -20 -2 0 -4 27 -4 60 l0 60
135 0 135 0 0 -60z m230 -165 l0 -226 -72 3 -73 3 -3 210 c-1 115 0 215 2 222
4 9 28 13 76 13 l70 0 0 -225z m410 159 c0 -36 -3 -64 -7 -62 -72 37 -93 43
-158 42 -63 0 -91 -8 -157 -42 -10 -5 -11 112 -1 121 3 4 78 7 165 7 l158 0 0
-66z m240 -159 l0 -225 -75 0 -75 0 -1 143 c-1 78 -3 160 -4 182 -1 22 1 59 3
83 l5 42 73 0 74 0 0 -225z m440 155 c0 -38 -2 -70 -4 -70 -2 0 -25 12 -52 28
-66 36 -176 39 -241 4 -23 -12 -45 -22 -48 -22 -3 0 -5 29 -5 65 l0 65 175 0
175 0 0 -70z m240 -155 l0 -225 -80 0 -80 0 0 225 0 225 80 0 80 0 0 -225z
m418 158 c2 -35 0 -63 -3 -63 -3 0 -25 10 -48 22 -60 32 -175 32 -234 0 l-43
-22 0 65 0 65 163 -2 162 -3 3 -62z m227 -158 l0 -220 -72 -3 -73 -3 0 226 0
226 73 -3 72 -3 0 -220z m355 165 c0 -33 -2 -60 -4 -60 -2 0 -23 9 -47 20 -56
25 -112 25 -168 0 -24 -11 -45 -20 -47 -20 -2 0 -4 27 -4 60 l0 60 135 0 135
0 0 -60z m290 -165 l0 -225 -105 0 -105 0 0 225 0 225 105 0 105 0 0 -225z
m-2943 55 c7 0 31 -16 53 -36 l40 -36 0 -104 0 -104 -135 0 -135 0 0 103 0
103 33 32 c36 35 80 53 112 47 11 -3 26 -5 32 -5z m617 -1 c24 -6 60 -24 80
-41 l36 -29 0 -105 0 -104 -165 0 -165 0 0 98 c1 99 4 109 47 145 22 19 86 46
111 47 7 0 33 -5 56 -11z m701 -11 c11 -6 37 -26 58 -46 l37 -36 0 -93 0 -93
-175 0 -175 0 0 99 0 99 40 36 c22 19 52 38 67 42 16 3 33 7 38 9 15 6 87 -6
110 -17z m675 -3 c14 -7 38 -26 53 -43 27 -28 28 -32 25 -123 l-3 -94 -163 -3
-163 -2 3 106 3 107 37 30 c58 47 142 56 208 22z m567 15 c7 0 31 -16 53 -36
l40 -36 0 -104 0 -104 -135 0 -135 0 0 103 0 103 33 32 c36 35 80 53 112 47
11 -3 26 -5 32 -5z m513 -405 l0 -45 -57 -1 c-188 -4 -3589 -6 -3600 -2 -8 3
-13 22 -13 49 l0 44 1835 0 1835 0 0 -45z"/>
<path d="M2631 2941 c-17 -17 -21 -34 -21 -92 0 -81 11 -109 44 -109 39 0 47
21 44 110 -3 72 -6 84 -25 97 -19 13 -24 12 -42 -6z"/>
<path d="M1961 2806 c-8 -9 -11 -46 -9 -101 2 -71 6 -90 21 -99 12 -8 22 -8
35 0 14 9 18 28 20 99 3 91 -5 115 -38 115 -10 0 -23 -6 -29 -14z"/>
<path d="M3290 2801 c-5 -11 -10 -53 -10 -95 0 -75 13 -106 44 -106 28 0 36
26 36 110 0 54 -5 91 -12 98 -18 18 -46 14 -58 -7z"/>
<path d="M2626 2438 c-19 -26 -22 -148 -6 -179 6 -11 21 -19 35 -19 34 0 45
27 45 114 0 54 -4 79 -16 90 -21 22 -40 20 -58 -6z"/>
<path d="M1357 2357 c-15 -10 -17 -27 -15 -107 3 -91 4 -95 26 -98 42 -6 52
13 52 104 0 62 -4 87 -16 98 -19 19 -25 20 -47 3z"/>
<path d="M3906 2354 c-12 -11 -16 -36 -16 -98 0 -91 10 -110 52 -104 22 3 23
7 26 98 2 80 0 97 -15 107 -22 17 -28 16 -47 -3z"/>
<path d="M1961 2346 c-8 -9 -11 -46 -9 -101 2 -71 6 -90 21 -99 12 -8 22 -8
35 0 14 9 18 28 20 99 3 91 -5 115 -38 115 -10 0 -23 -6 -29 -14z"/>
<path d="M3290 2341 c-5 -11 -10 -52 -10 -91 0 -78 11 -110 38 -110 34 0 42
22 42 110 0 54 -5 91 -12 98 -18 18 -46 14 -58 -7z"/>
<path d="M2626 1938 c-19 -26 -22 -148 -6 -179 6 -11 21 -19 35 -19 34 0 45
27 45 114 0 54 -4 79 -16 90 -21 22 -40 20 -58 -6z"/>
<path d="M1957 1883 c-4 -3 -7 -48 -7 -99 0 -82 2 -95 19 -104 25 -13 27 -13
45 6 20 19 23 173 4 192 -13 13 -50 16 -61 5z"/>
<path d="M3292 1878 c-7 -7 -12 -42 -12 -93 0 -68 3 -85 19 -99 16 -14 23 -15
41 -6 19 10 21 18 18 108 -3 95 -3 97 -28 100 -14 2 -31 -3 -38 -10z"/>
<path d="M1352 1838 c-16 -16 -16 -180 0 -196 16 -16 33 -15 52 4 19 18 23
153 6 185 -12 21 -40 25 -58 7z"/>
<path d="M3900 1831 c-5 -11 -10 -52 -10 -91 0 -78 11 -110 38 -110 34 0 42
22 42 110 0 54 -5 91 -12 98 -18 18 -46 14 -58 -7z"/>
<path d="M1027 1682 c-23 -25 -24 -134 -1 -156 8 -9 22 -16 29 -16 44 0 64
131 25 170 -25 25 -32 25 -53 2z"/>
<path d="M1027 1332 c-25 -28 -23 -133 2 -156 22 -20 54 -10 65 20 14 37 6
114 -14 134 -25 25 -32 25 -53 2z"/>
<path d="M4231 1681 c-39 -39 -21 -171 23 -171 31 0 47 36 44 100 -2 51 -7 65
-25 77 -19 13 -24 12 -42 -6z"/>
<path d="M4230 1330 c-20 -20 -28 -97 -14 -134 11 -30 43 -40 65 -20 27 24 27
133 1 157 -24 22 -28 21 -52 -3z"/>
<path d="M2620 1361 c-5 -11 -10 -51 -10 -90 0 -58 4 -75 21 -92 18 -18 23
-19 42 -6 19 13 22 25 25 97 2 52 -1 87 -9 96 -17 20 -57 17 -69 -5z"/>
<path d="M1962 1368 c-8 -8 -12 -45 -12 -100 0 -76 2 -89 19 -98 25 -13 27
-13 45 6 12 11 16 36 16 98 0 83 -9 106 -40 106 -9 0 -21 -5 -28 -12z"/>
<path d="M3292 1368 c-19 -19 -16 -172 4 -192 19 -19 25 -20 47 -3 15 10 17
27 15 107 -3 93 -4 95 -28 98 -14 2 -31 -3 -38 -10z"/>
<path d="M1347 1373 c-4 -3 -7 -48 -7 -99 0 -82 2 -95 19 -104 25 -13 27 -13
45 6 20 19 23 173 4 192 -13 13 -50 16 -61 5z"/>
<path d="M3902 1368 c-19 -19 -16 -172 4 -192 19 -19 25 -20 47 -3 15 10 17
27 15 107 -3 93 -4 95 -28 98 -14 2 -31 -3 -38 -10z"/>
<path d="M1350 526 c-19 -23 -8 -61 18 -64 44 -7 67 32 36 62 -19 20 -38 20
-54 2z"/>
<path d="M1961 526 c-7 -8 -11 -25 -9 -38 2 -18 9 -23 32 -23 36 0 56 27 40
53 -14 22 -48 27 -63 8z"/>
<path d="M2626 524 c-20 -19 -20 -38 -2 -54 23 -19 61 -8 64 18 7 44 -32 67
-62 36z"/>
<path d="M3296 524 c-19 -19 -20 -25 -3 -48 19 -26 61 -18 65 12 7 44 -32 67
-62 36z"/>
<path d="M3898 515 c-14 -32 5 -57 41 -53 18 2 27 10 29 26 7 50 -49 72 -70
27z"/>
</g>
</svg>
